<svg width="17" height="12" viewBox="0 0 17 12" fill="none" xmlns="http://www.w3.org/2000/svg">
<g clip-path="url(#clip0_1423_11423)">
<path fill-rule="evenodd" clip-rule="evenodd" d="M1.22984 0.612081C1.22984 0.950124 0.955801 1.22416 0.617757 1.22416C0.279714 1.22416 0.00567627 0.950124 0.00567627 0.612081C0.00567627 0.274038 0.279714 0 0.617757 0C0.955801 0 1.22984 0.274038 1.22984 0.612081ZM7.13905 0.612081C7.13905 0.950124 6.86502 1.22416 6.52697 1.22416C6.18893 1.22416 5.91489 0.950124 5.91489 0.612081C5.91489 0.274038 6.18893 0 6.52697 0C6.86502 0 7.13905 0.274038 7.13905 0.612081ZM12.4357 1.22416C12.7737 1.22416 13.0478 0.950124 13.0478 0.612081C13.0478 0.274038 12.7737 0 12.4357 0C12.0977 0 11.8236 0.274038 11.8236 0.612081C11.8236 0.950124 12.0977 1.22416 12.4357 1.22416ZM4.1842 0.612081C4.1842 0.950124 3.91017 1.22416 3.57212 1.22416C3.23408 1.22416 2.96004 0.950124 2.96004 0.612081C2.96004 0.274038 3.23408 0 3.57212 0C3.91017 0 4.1842 0.274038 4.1842 0.612081ZM9.48134 1.22416C9.81938 1.22416 10.0934 0.950124 10.0934 0.612081C10.0934 0.274038 9.81938 0 9.48134 0C9.1433 0 8.86926 0.274038 8.86926 0.612081C8.86926 0.950124 9.1433 1.22416 9.48134 1.22416ZM16.0022 0.612081C16.0022 0.950124 15.7281 1.22416 15.3901 1.22416C15.052 1.22416 14.778 0.950124 14.778 0.612081C14.778 0.274038 15.052 0 15.3901 0C15.7281 0 16.0022 0.274038 16.0022 0.612081ZM0.617757 3.91748C0.955801 3.91748 1.22984 3.64345 1.22984 3.3054C1.22984 2.96736 0.955801 2.69332 0.617757 2.69332C0.279714 2.69332 0.00567627 2.96736 0.00567627 3.3054C0.00567627 3.64345 0.279714 3.91748 0.617757 3.91748ZM13.0478 3.30537C13.0478 3.64341 12.7737 3.91745 12.4357 3.91745C12.0977 3.91745 11.8236 3.64341 11.8236 3.30537C11.8236 2.96732 12.0977 2.69328 12.4357 2.69328C12.7737 2.69328 13.0478 2.96732 13.0478 3.30537ZM3.57212 3.91745C3.91017 3.91745 4.1842 3.64341 4.1842 3.30537C4.1842 2.96732 3.91017 2.69328 3.57212 2.69328C3.23408 2.69328 2.96004 2.96732 2.96004 3.30537C2.96004 3.64341 3.23408 3.91745 3.57212 3.91745ZM16.0022 3.30537C16.0022 3.64341 15.7281 3.91745 15.3901 3.91745C15.052 3.91745 14.778 3.64341 14.778 3.30537C14.778 2.96732 15.052 2.69328 15.3901 2.69328C15.7281 2.69328 16.0022 2.96732 16.0022 3.30537ZM0.617757 6.61056C0.955801 6.61056 1.22984 6.33653 1.22984 5.99848C1.22984 5.66044 0.955801 5.3864 0.617757 5.3864C0.279714 5.3864 0.00567627 5.66044 0.00567627 5.99848C0.00567627 6.33653 0.279714 6.61056 0.617757 6.61056ZM13.0478 5.99853C13.0478 6.33657 12.7737 6.61061 12.4357 6.61061C12.0977 6.61061 11.8236 6.33657 11.8236 5.99853C11.8236 5.66049 12.0977 5.38645 12.4357 5.38645C12.7737 5.38645 13.0478 5.66049 13.0478 5.99853ZM3.57212 6.61061C3.91017 6.61061 4.1842 6.33657 4.1842 5.99853C4.1842 5.66049 3.91017 5.38645 3.57212 5.38645C3.23408 5.38645 2.96004 5.66049 2.96004 5.99853C2.96004 6.33657 3.23408 6.61061 3.57212 6.61061ZM16.0022 5.99853C16.0022 6.33657 15.7281 6.61061 15.3901 6.61061C15.052 6.61061 14.778 6.33657 14.778 5.99853C14.778 5.66049 15.052 5.38645 15.3901 5.38645C15.7281 5.38645 16.0022 5.66049 16.0022 5.99853ZM0.617757 9.30401C0.955801 9.30401 1.22984 9.02997 1.22984 8.69193C1.22984 8.35388 0.955801 8.07984 0.617757 8.07984C0.279714 8.07984 0.00567627 8.35388 0.00567627 8.69193C0.00567627 9.02997 0.279714 9.30401 0.617757 9.30401ZM16.0022 8.69194C16.0022 9.02998 15.7281 9.30402 15.3901 9.30402C15.052 9.30402 14.778 9.02998 14.778 8.69194C14.778 8.35389 15.052 8.07985 15.3901 8.07985C15.7281 8.07985 16.0022 8.35389 16.0022 8.69194ZM0.617757 11.9973C0.955801 11.9973 1.22984 11.7233 1.22984 11.3852C1.22984 11.0472 0.955801 10.7732 0.617757 10.7732C0.279714 10.7732 0.00567627 11.0472 0.00567627 11.3852C0.00567627 11.7233 0.279714 11.9973 0.617757 11.9973ZM16.0022 11.3852C16.0022 11.7233 15.7281 11.9973 15.3901 11.9973C15.052 11.9973 14.778 11.7233 14.778 11.3852C14.778 11.0472 15.052 10.7731 15.3901 10.7731C15.7281 10.7731 16.0022 11.0472 16.0022 11.3852ZM11.0777 8.67442C10.8956 8.59915 10.7005 8.56054 10.5035 8.5608H5.5046C5.10695 8.56107 4.72566 8.71915 4.44447 9.00033C4.16329 9.28152 4.00521 9.66281 4.00494 10.0605V12.5599H5.00471V10.0605C5.00471 9.92788 5.05738 9.80073 5.15113 9.70699C5.24487 9.61324 5.37202 9.56057 5.5046 9.56057H10.5035C10.636 9.56057 10.7632 9.61324 10.8569 9.70699C10.9507 9.80073 11.0033 9.92788 11.0033 10.0605V12.5599H12.0031V10.0605C12.0034 9.86345 11.9648 9.66832 11.8895 9.48625C11.8142 9.30419 11.7038 9.13876 11.5645 8.99946C11.4252 8.86015 11.2597 8.74969 11.0777 8.67442ZM6.52055 7.07274C6.87406 7.33327 7.28975 7.49647 7.72609 7.54603C8.22002 7.60124 8.71919 7.50694 9.15983 7.27705C9.60047 7.04717 9.96257 6.69113 10.1999 6.25444C10.4372 5.81774 10.5389 5.32022 10.492 4.82543C10.4452 4.33064 10.2519 3.86105 9.9368 3.47667C9.62175 3.09228 9.19925 2.81055 8.72329 2.66747C8.24733 2.52438 7.73952 2.52645 7.26473 2.67339C6.78995 2.82034 6.36976 3.10549 6.05784 3.49243C5.74592 3.87936 5.55643 4.3505 5.5136 4.84565C5.47675 5.26108 5.54481 5.6791 5.71155 6.06138C5.88808 6.46348 6.16703 6.81222 6.52055 7.07274ZM9.06444 6.12202C8.78321 6.40326 8.40176 6.56126 8.00403 6.56126C7.60629 6.56126 7.22485 6.40326 6.94361 6.12202C6.66237 5.84078 6.50437 5.45934 6.50437 5.0616C6.50437 4.66387 6.66237 4.28243 6.94361 4.00119C7.22485 3.71995 7.60629 3.56195 8.00403 3.56195C8.40176 3.56195 8.78321 3.71995 9.06444 4.00119C9.34569 4.28243 9.50368 4.66387 9.50368 5.0616C9.50368 5.45934 9.34569 5.84078 9.06444 6.12202Z" fill="white"/>
</g>
<defs>
<clipPath id="clip0_1423_11423">
<rect width="16" height="11.9987" fill="white" transform="translate(0.00396729)"/>
</clipPath>
</defs>
</svg>
