<svg width="17" height="13" viewBox="0 0 17 13" fill="none" xmlns="http://www.w3.org/2000/svg">
<path d="M4.20751 0L0 4.20751V2.79334L2.79334 0H4.20751ZM1.50018 12.0015H3.00037V10.2943L1.30516 11.9895C1.36917 11.9975 1.43518 12.0015 1.50018 12.0015ZM13.2086 12.0015H13.0016V10.7943L16.002 7.79395V9.20812L13.2086 12.0015ZM16.002 5.7077L12.9036 8.80608C12.8057 8.46792 12.6373 8.15433 12.4095 7.88596L16.002 4.29352V5.7077ZM10.5013 8.00098C10.6984 8.00071 10.8936 8.03934 11.0757 8.11464C11.2578 8.18993 11.4233 8.30043 11.5627 8.43978C11.702 8.57914 11.8125 8.74462 11.8878 8.92675C11.9631 9.10888 12.0017 9.30408 12.0015 9.50116V12.0015H11.0013V9.50116C11.0013 9.36854 10.9487 9.24134 10.8549 9.14756C10.7611 9.05378 10.6339 9.0011 10.5013 9.0011H5.50067C5.36805 9.0011 5.24085 9.05378 5.14707 9.14756C5.0533 9.24134 5.00061 9.36854 5.00061 9.50116V12.0015H4.00049V9.50116C4.00075 9.10337 4.15889 8.72194 4.44017 8.44066C4.72146 8.15938 5.10288 8.00124 5.50067 8.00098H10.5013ZM7.72294 6.98585C7.28645 6.93627 6.87061 6.77302 6.51698 6.5124C6.16334 6.25178 5.88428 5.90291 5.7077 5.50067C5.5409 5.11826 5.47281 4.70009 5.50967 4.28452C5.55252 3.7892 5.74207 3.31789 6.0541 2.93082C6.36613 2.54375 6.78647 2.2585 7.26142 2.1115C7.73637 1.9645 8.24436 1.96244 8.72049 2.10557C9.19662 2.2487 9.61927 2.53054 9.93443 2.91506C10.2496 3.29958 10.443 3.76933 10.4898 4.26429C10.5367 4.75925 10.435 5.25695 10.1976 5.6938C9.96021 6.13065 9.59798 6.48681 9.15718 6.71678C8.71639 6.94674 8.21704 7.04008 7.72294 6.98485V6.98585ZM8.00098 6.00073C8.39885 6.00073 8.78043 5.84268 9.06177 5.56134C9.34311 5.28 9.50116 4.89842 9.50116 4.50055C9.50116 4.10268 9.34311 3.7211 9.06177 3.43976C8.78043 3.15842 8.39885 3.00037 8.00098 3.00037C7.6031 3.00037 7.22153 3.15842 6.94019 3.43976C6.65885 3.7211 6.50079 4.10268 6.50079 4.50055C6.50079 4.89842 6.65885 5.28 6.94019 5.56134C7.22153 5.84268 7.6031 6.00073 8.00098 6.00073ZM0.120015 11.0894L4.96461 6.24376C4.78129 5.92514 4.64964 5.57948 4.57456 5.21964L0 9.7942V10.5013C0 10.7103 0.0430051 10.9083 0.120015 11.0894ZM9.74419 1.46418C9.42557 1.28087 9.0799 1.14922 8.72006 1.07413L9.7942 0H11.2084L9.74419 1.46418ZM11.3204 3.38841C11.2085 3.05424 11.0467 2.73896 10.8403 2.4533L13.2956 0H14.5018C14.5678 0 14.6318 0.0040005 14.6968 0.0130016L11.3204 3.38841ZM10.4513 7.00085C10.8913 6.5708 11.2174 6.02574 11.3814 5.41366L15.8839 0.913112C15.9599 1.09313 16.004 1.29116 16.004 1.50018V2.20727L11.1304 7.07986C10.9251 7.02746 10.7141 7.00092 10.5023 7.00085H10.4523H10.4513ZM0 7.70794L7.70794 0H6.29377L0 6.29377V7.70794Z" fill="white"/>
</svg>
