<svg width="12" height="12" viewBox="0 0 12 12" fill="none" xmlns="http://www.w3.org/2000/svg">
<path d="M6 0.95C5.4555 0.95 4.93382 1.17714 4.54958 1.58059C4.16542 1.98396 3.95 2.53055 3.95 3.1V5.9C3.95 6.46945 4.16542 7.01604 4.54958 7.41941C4.93382 7.82286 5.4555 8.05 6 8.05C6.5445 8.05 7.06618 7.82286 7.45042 7.41941C7.83458 7.01604 8.05 6.46945 8.05 5.9V3.1C8.05 2.53055 7.83458 1.98396 7.45042 1.58059C7.06618 1.17714 6.5445 0.95 6 0.95ZM7.28333 5.9C7.28333 6.25881 7.14756 6.60246 6.9066 6.85547C6.66572 7.10839 6.33955 7.25 6 7.25C5.66045 7.25 5.33428 7.10839 5.0934 6.85547C4.85244 6.60246 4.71667 6.25881 4.71667 5.9V3.1C4.71667 2.74119 4.85244 2.39754 5.0934 2.14453C5.33428 1.89161 5.66045 1.75 6 1.75C6.33955 1.75 6.66572 1.89161 6.9066 2.14453C7.14756 2.39754 7.28333 2.74119 7.28333 3.1V5.9Z" fill="white" stroke="white" stroke-width="0.1"/>
<path d="M6.4 10.0597C8.1742 9.85191 9.55 8.276 9.55 6.36667C9.55 6.25689 9.5084 6.15117 9.43366 6.07287C9.35884 5.99449 9.25686 5.95 9.15 5.95C9.04314 5.95 8.94116 5.99449 8.86634 6.07287C8.7916 6.15117 8.75 6.25689 8.75 6.36667C8.75 7.13211 8.45973 7.86575 7.94373 8.40632C7.42781 8.94681 6.72857 9.25 6 9.25C5.27143 9.25 4.57219 8.94681 4.05627 8.40632C3.54027 7.86575 3.25 7.13211 3.25 6.36667C3.25 6.25689 3.2084 6.15117 3.13366 6.07287C3.05884 5.99449 2.95686 5.95 2.85 5.95C2.74314 5.95 2.64116 5.99449 2.56634 6.07287C2.4916 6.15117 2.45 6.25689 2.45 6.36667C2.45 8.27637 3.8258 9.85191 5.6 10.0597V11.1333C5.6 11.2431 5.6416 11.3488 5.71634 11.4271C5.79116 11.5055 5.89314 11.55 6 11.55C6.10686 11.55 6.20884 11.5055 6.28366 11.4271C6.3584 11.3488 6.4 11.2431 6.4 11.1333V10.0597Z" fill="white" stroke="white" stroke-width="0.1"/>
</svg>
