<svg width="16" height="16" viewBox="0 0 16 16" fill="none" xmlns="http://www.w3.org/2000/svg">
<path d="M7.16667 5.32445V8.39112C7.16667 8.68278 7.32501 8.95778 7.57501 9.10778L10.175 10.6495C10.475 10.8245 10.8583 10.7245 11.0333 10.4328C11.2083 10.1328 11.1167 9.74945 10.8167 9.57445L8.42501 8.14945V5.31612C8.41667 4.98278 8.13334 4.69945 7.79167 4.69945C7.45001 4.69945 7.16667 4.98278 7.16667 5.32445ZM15.5 5.94945V1.54112C15.5 1.16612 15.05 0.982784 14.7917 1.24945L13.3083 2.73278C12.5277 1.95213 11.5846 1.35322 10.546 0.978721C9.50752 0.604219 8.39919 0.46334 7.30001 0.566118C3.80834 0.882784 0.933339 3.69112 0.550005 7.18278C0.347373 9.1406 0.922491 11.0996 2.15129 12.6372C3.38009 14.1748 5.16407 15.1677 7.11837 15.4017C9.07268 15.6357 11.0407 15.0921 12.5978 13.8882C14.1549 12.6842 15.1763 10.9164 15.4417 8.96612C15.5 8.46612 15.1083 8.03278 14.6083 8.03278C14.1917 8.03278 13.8417 8.34112 13.7917 8.74945C13.4333 11.6578 10.925 13.9078 7.91667 13.8661C4.82501 13.8245 2.21667 11.2161 2.16667 8.11612C2.11667 4.86612 4.75834 2.19945 8.00001 2.19945C9.60834 2.19945 11.0667 2.85778 12.125 3.90778L10.3833 5.64945C10.1167 5.91612 10.3 6.36612 10.675 6.36612H15.0833C15.3167 6.36612 15.5 6.18278 15.5 5.94945Z" fill="#F7941D"/>
</svg>
