<svg width="19" height="16" viewBox="0 0 19 16" fill="none" xmlns="http://www.w3.org/2000/svg">
<path d="M6.56158 5.4493C6.56158 6.0249 6.09497 6.49151 5.51937 6.49151C4.94377 6.49151 4.47715 6.0249 4.47715 5.4493C4.47715 4.8737 4.94377 4.40709 5.51937 4.40709C6.09497 4.40709 6.56158 4.8737 6.56158 5.4493Z" fill="#F7941D" stroke="#F7941D" stroke-width="1.17794"/>
<path d="M10.2938 9.676H8.81093H10.2938ZM10.2938 9.676C10.4594 9.67561 10.619 9.73822 10.7402 9.85112L10.2938 9.676ZM6.54629 9.39425V11.5931H4.47669V9.49805H3.88772H3.43867V9.05318H3.43871L3.43863 9.04617C3.43759 8.95928 3.45381 8.87305 3.48635 8.79248C3.51889 8.7119 3.56709 8.63859 3.62817 8.57678C3.68925 8.51498 3.76199 8.46591 3.84217 8.43242C3.92236 8.39893 4.00839 8.38169 4.09529 8.3817H4.09533H4.22121L5.09799 9.61659L5.57487 10.2883L6.05619 9.61976L6.54629 8.93906V9.39425ZM7.64443 9.09822L7.25334 8.42555C7.37295 8.47343 7.4814 8.54686 7.57074 8.64138C7.71927 8.87874 8.12685 9.63934 8.2892 9.94929L8.45456 10.265H8.81093L10.2938 10.265L10.2952 10.265C10.3113 10.2649 10.3268 10.271 10.3386 10.282C10.3454 10.2883 10.3506 10.2959 10.354 10.3042C10.3509 10.3134 10.3457 10.3219 10.3387 10.3289C10.3268 10.3408 10.3107 10.3475 10.2938 10.3475H8.37075L7.64443 9.09822Z" fill="#F7941D" stroke="#F7941D" stroke-width="1.17794"/>
<path d="M15.4928 4.40709V4.64798H9.87462V4.40709H15.4928Z" fill="#333333" stroke="#F7941D" stroke-width="1.17794"/>
<path d="M15.4929 6.52379V6.76468H10.9796V6.52379H15.4929Z" fill="#333333" stroke="#F7941D" stroke-width="1.17794"/>
<rect x="0.783867" y="1.63909" width="17.4336" height="12.7219" rx="1.17786" stroke="#F7941D" stroke-width="1.41344"/>
</svg>
