<svg width="20" height="20" viewBox="0 0 20 20" fill="none" xmlns="http://www.w3.org/2000/svg">
<path d="M9.16667 7.29168V10.3583C9.16667 10.65 9.32501 10.925 9.57501 11.075L12.175 12.6167C12.475 12.7917 12.8583 12.6917 13.0333 12.4C13.2083 12.1 13.1167 11.7167 12.8167 11.5417L10.425 10.1167V7.28334C10.4167 6.95001 10.1333 6.66668 9.79167 6.66668C9.45001 6.66668 9.16667 6.95001 9.16667 7.29168ZM17.5 7.91668V3.50834C17.5 3.13334 17.05 2.95001 16.7917 3.21668L15.3083 4.70001C14.5277 3.91935 13.5846 3.32045 12.546 2.94595C11.5075 2.57144 10.3992 2.43056 9.30001 2.53334C5.80834 2.85001 2.93334 5.65834 2.55001 9.15001C2.34737 11.1078 2.92249 13.0668 4.15129 14.6044C5.38009 16.142 7.16407 17.1349 9.11837 17.3689C11.0727 17.603 13.0407 17.0594 14.5978 15.8554C16.1549 14.6515 17.1763 12.8836 17.4417 10.9333C17.5 10.4333 17.1083 10 16.6083 10C16.1917 10 15.8417 10.3083 15.7917 10.7167C15.4333 13.625 12.925 15.875 9.91667 15.8333C6.82501 15.7917 4.21667 13.1833 4.16667 10.0833C4.11667 6.83334 6.75834 4.16668 10 4.16668C11.6083 4.16668 13.0667 4.82501 14.125 5.87501L12.3833 7.61668C12.1167 7.88334 12.3 8.33334 12.675 8.33334H17.0833C17.3167 8.33334 17.5 8.15001 17.5 7.91668Z" fill="#F7941D"/>
</svg>
