<svg width="12" height="12" viewBox="0 0 12 12" fill="none" xmlns="http://www.w3.org/2000/svg">
<path fill-rule="evenodd" clip-rule="evenodd" d="M10.25 1.5H1.71154C1.52283 1.5 1.34184 1.57497 1.2084 1.7084C1.07497 1.84184 1 2.02283 1 2.21154V7.90385C1 8.09256 1.07497 8.27354 1.2084 8.40698C1.34184 8.54042 1.52283 8.61539 1.71154 8.61539H4.55769V10.0385H3.49038C3.2939 10.0385 3.13462 10.1977 3.13462 10.3942C3.13462 10.5907 3.2939 10.75 3.49038 10.75H8.47115C8.66764 10.75 8.82692 10.5907 8.82692 10.3942C8.82692 10.1977 8.66764 10.0385 8.47115 10.0385H7.40385V8.61539H10.25C10.4387 8.61539 10.6197 8.54042 10.7531 8.40698C10.8866 8.27354 10.9615 8.09256 10.9615 7.90385V2.21154C10.9615 2.02283 10.8866 1.84184 10.7531 1.7084C10.6197 1.57497 10.4387 1.5 10.25 1.5ZM6.69231 10.0385H5.26923V8.61539H6.69231V10.0385ZM10.25 7.90385H1.71154V2.21154H10.25V7.90385ZM6.57852 2.97418L8.0461 4.30182C8.13854 4.38547 8.13842 4.53564 8.0461 4.61916L6.57852 5.94694C6.45022 6.06303 6.2476 5.9691 6.2476 5.78827V5.0203C4.95446 5.03979 4.39703 5.37609 4.77513 6.64283C4.8171 6.78345 4.65486 6.89233 4.54101 6.80558C4.17619 6.52759 3.84615 5.99589 3.84615 5.45918C3.84615 4.12942 4.90822 3.8482 6.2476 3.83214V3.13284C6.2476 2.9523 6.45006 2.85795 6.57852 2.97418Z" fill="white"/>
</svg>
