<svg width="20" height="16" viewBox="0 0 20 16" fill="none" xmlns="http://www.w3.org/2000/svg">
<path d="M17.4137 0.375H2.41374C1.49707 0.375 0.74707 1.125 0.74707 2.04167V4.54167H2.41374V2.04167H17.4137V13.7083H11.5804V15.375H17.4137C18.3304 15.375 19.0804 14.625 19.0804 13.7083V2.04167C19.0804 1.125 18.3304 0.375 17.4137 0.375ZM0.74707 12.875V15.375H3.24707C3.24707 13.9917 2.1304 12.875 0.74707 12.875ZM0.74707 9.54167V11.2083C3.04707 11.2083 4.91374 13.075 4.91374 15.375H6.5804C6.5804 12.15 3.97207 9.54167 0.74707 9.54167ZM0.74707 6.20833V7.875C1.73198 7.875 2.70725 8.06899 3.6172 8.4459C4.52714 8.82281 5.35393 9.37526 6.05037 10.0717C6.74681 10.7681 7.29926 11.5949 7.67617 12.5049C8.05308 13.4148 8.24707 14.3901 8.24707 15.375H9.91374C9.91374 10.3083 5.8054 6.20833 0.74707 6.20833Z" fill="#F7941D"/>
<path d="M14.3819 5.13637C14.3819 6.06146 13.632 6.81139 12.7069 6.81139C11.7818 6.81139 11.0319 6.06146 11.0319 5.13637C11.0319 4.21128 11.7818 3.46134 12.7069 3.46134C13.632 3.46134 14.3819 4.21128 14.3819 5.13637Z" fill="#F7941D"/>
<path fill-rule="evenodd" clip-rule="evenodd" d="M15.2319 9.48511C15.2347 9.43315 15.2362 9.3808 15.2362 9.32809C15.2362 7.8537 14.1113 6.65847 12.7236 6.65847C11.3359 6.65847 10.211 7.8537 10.211 9.32809C10.211 9.3808 10.2124 9.43315 10.2153 9.48511H15.2319Z" fill="#F7941D"/>
</svg>
