<svg width="10" height="11" viewBox="0 0 10 11" fill="none" xmlns="http://www.w3.org/2000/svg">
<path d="M4.92379 10.771L3.31565 9.16285H1.17146C0.887122 9.16285 0.614431 9.0499 0.413374 8.84884C0.212318 8.64779 0.0993652 8.37509 0.0993652 8.09076V1.12214C0.0993652 0.837806 0.212318 0.565115 0.413374 0.364058C0.614431 0.163001 0.887122 0.0500488 1.17146 0.0500488H8.67612C8.96046 0.0500488 9.23315 0.163001 9.43421 0.364058C9.63526 0.565115 9.74821 0.837806 9.74821 1.12214V8.09076C9.74821 8.37509 9.63526 8.64779 9.43421 8.84884C9.23315 9.0499 8.96046 9.16285 8.67612 9.16285H6.53193L4.92379 10.771ZM1.17146 1.12214V8.09076H3.8517L4.92379 9.16285L5.99588 8.09076H8.67612V1.12214H1.17146ZM7.06798 7.01116H2.7796V6.80424C2.81008 6.26475 3.05256 5.75918 3.4542 5.3977C3.85584 5.03622 4.38408 4.84815 4.92379 4.87447C5.4635 4.84815 5.99174 5.03622 6.39338 5.3977C6.79502 5.75918 7.0375 6.26475 7.06798 6.80424V7.01116ZM4.92379 4.33843C4.78167 4.34337 4.64005 4.31901 4.50775 4.26688C4.37544 4.21475 4.25527 4.13596 4.15472 4.03541C4.05416 3.93485 3.97537 3.81468 3.92324 3.68238C3.87111 3.55007 3.84676 3.40845 3.8517 3.26633C3.84684 3.12423 3.87124 2.98265 3.9234 2.85038C3.97556 2.71811 4.05435 2.59797 4.15489 2.49744C4.25543 2.3969 4.37557 2.3181 4.50784 2.26594C4.64011 2.21379 4.78169 2.18938 4.92379 2.19424C5.06589 2.18938 5.20747 2.21379 5.33974 2.26594C5.47201 2.3181 5.59215 2.3969 5.69269 2.49744C5.79322 2.59797 5.87202 2.71811 5.92418 2.85038C5.97634 2.98265 6.00074 3.12423 5.99588 3.26633C6.00082 3.40845 5.97647 3.55007 5.92434 3.68238C5.87221 3.81468 5.79342 3.93485 5.69286 4.03541C5.59231 4.13596 5.47214 4.21475 5.33983 4.26688C5.20753 4.31901 5.06591 4.34337 4.92379 4.33843Z" fill="white"/>
</svg>
