<svg width="12" height="12" viewBox="0 0 12 12" fill="none" xmlns="http://www.w3.org/2000/svg">
<path d="M4.5 11C4.225 11 3.98967 10.9022 3.794 10.7065C3.598 10.5105 3.5 10.275 3.5 10H5.5V7.9625C4.64167 7.8375 3.92717 7.45 3.3565 6.8C2.7855 6.15 2.5 5.38333 2.5 4.5C2.5 3.525 2.83967 2.69783 3.519 2.0185C4.198 1.3395 5.025 1 6 1C6.975 1 7.802 1.3395 8.481 2.0185C9.16033 2.69783 9.5 3.525 9.5 4.5C9.5 5.38333 9.21467 6.15 8.644 6.8C8.073 7.45 7.35833 7.8375 6.5 7.9625V10H8.5C8.5 10.275 8.40217 10.5105 8.2065 10.7065C8.0105 10.9022 7.775 11 7.5 11H4.5ZM6 7C6.69167 7 7.28133 6.75617 7.769 6.2685C8.25633 5.78117 8.5 5.19167 8.5 4.5C8.5 3.80833 8.25633 3.21883 7.769 2.7315C7.28133 2.24383 6.69167 2 6 2C5.30833 2 4.71883 2.24383 4.2315 2.7315C3.74383 3.21883 3.5 3.80833 3.5 4.5C3.5 5.19167 3.74383 5.78117 4.2315 6.2685C4.71883 6.75617 5.30833 7 6 7ZM6 5.5C5.725 5.5 5.48967 5.402 5.294 5.206C5.098 5.01033 5 4.775 5 4.5C5 4.225 5.098 3.9895 5.294 3.7935C5.48967 3.59783 5.725 3.5 6 3.5C6.275 3.5 6.5105 3.59783 6.7065 3.7935C6.90217 3.9895 7 4.225 7 4.5C7 4.775 6.90217 5.01033 6.7065 5.206C6.5105 5.402 6.275 5.5 6 5.5Z" fill="white"/>
</svg>
